HIERARCHY
ROOT root
{
	OFFSET 0.000000 0.000000 0.000000
	CHANNELS 6 Xposition Yposition Zposition Zrotation Yrotation Xrotation
	JOINT lhip
	{
		OFFSET 0.058581 -0.082280 -0.017664
		CHANNELS 3 Zrotation Yrotation Xrotation
		JOINT lknee
		{
			OFFSET 0.043451 -0.386469 0.008037
			CHANNELS 3 Zrotation Yrotation Xrotation
			JOINT lankle
			{
				OFFSET -0.014790 -0.426874 -0.037428
				CHANNELS 3 Zrotation Yrotation Xrotation
				JOINT ltoe
				{
					OFFSET 0.041054 -0.060286 0.122042
					CHANNELS 3 Zrotation Yrotation Xrotation
					End Site
					{
						OFFSET 0.000000 0.000000 0.000000
					}
				}
			}
		}
	}
	JOINT rhip
	{
		OFFSET -0.060310 -0.090513 -0.013543
		CHANNELS 3 Zrotation Yrotation Xrotation
		JOINT rknee
		{
			OFFSET -0.043257 -0.383688 -0.004843
			CHANNELS 3 Zrotation Yrotation Xrotation
			JOINT rankle
			{
				OFFSET 0.019056 -0.420046 -0.034562
				CHANNELS 3 Zrotation Yrotation Xrotation
				JOINT rtoe
				{
					OFFSET -0.034840 -0.062106 0.130323
					CHANNELS 3 Zrotation Yrotation Xrotation
					End Site
					{
						OFFSET 0.000000 0.000000 0.000000
					}
				}
			}
		}
	}
	JOINT lowerback
	{
		OFFSET 0.004439 0.124404 -0.038385
		CHANNELS 3 Zrotation Yrotation Xrotation
		JOINT upperback
		{
			OFFSET 0.004488 0.137956 0.026820
			CHANNELS 3 Zrotation Yrotation Xrotation
			JOINT chest
			{
				OFFSET -0.002265 0.056032 0.002855
				CHANNELS 3 Zrotation Yrotation Xrotation
				JOINT lowerneck
				{
					OFFSET -0.013390 0.211636 -0.033468
					CHANNELS 3 Zrotation Yrotation Xrotation
					JOINT upperneck
					{
						OFFSET 0.010113 0.088937 0.050410
						CHANNELS 3 Zrotation Yrotation Xrotation
						End Site
						{
							OFFSET 0.000000 0.000000 0.000000
						}
					}
				}
				JOINT lclavicle
				{
					OFFSET 0.071702 0.114000 -0.018898
					CHANNELS 3 Zrotation Yrotation Xrotation
					JOINT lshoulder
					{
						OFFSET 0.122921 0.045205 -0.019046
						CHANNELS 3 Zrotation Yrotation Xrotation
						JOINT lelbow
						{
							OFFSET 0.255332 -0.015649 -0.022946
							CHANNELS 3 Zrotation Yrotation Xrotation
							JOINT lwrist
							{
								OFFSET 0.265709 0.012698 -0.007375
								CHANNELS 3 Zrotation Yrotation Xrotation
								End Site
								{
									OFFSET 0.000000 0.000000 0.000000
								}
							}
						}
					}
				}
				JOINT rclavicle
				{
					OFFSET -0.082954 0.112472 -0.023707
					CHANNELS 3 Zrotation Yrotation Xrotation
					JOINT rshoulder
					{
						OFFSET -0.113228 0.046853 -0.008472
						CHANNELS 3 Zrotation Yrotation Xrotation
						JOINT relbow
						{
							OFFSET -0.260127 -0.014369 -0.031269
							CHANNELS 3 Zrotation Yrotation Xrotation
							JOINT rwrist
							{
								OFFSET -0.269108 0.006794 -0.006027
								CHANNELS 3 Zrotation Yrotation Xrotation
								End Site
								{
									OFFSET 0.000000 0.000000 0.000000
								}
							}
						}
					}
				}
			}
		}
	}
}
MOTION
Frames: 17
Frame Time: 0.033333
-1.920230 0.629385 1.016009 -1.610652 2.175338 87.082517 3.013598 -10.781172 -2.771445 -9.065261 -24.217272 20.586329 4.231918 1.395061 -9.682016 0.000000 -0.000000 0.000000 -5.680169 2.646315 -2.270805 2.475236 14.421348 16.594470 6.196667 -0.181234 -4.905279 0.000000 -0.000000 0.000000 -2.402828 2.433814 3.223169 4.922934 -6.199745 4.934258 1.599308 -2.162429 -5.530878 4.934189 1.228995 -11.549207 5.965063 4.034150 6.015167 -30.362312 -11.318160 -0.059436 -48.628263 -11.312279 19.937420 -5.699707 -23.586001 14.468902 -0.170837 -7.447007 7.089805 27.636777 3.774290 1.881745 43.336865 -0.487494 12.472428 -13.336153 19.617070 -5.470936 3.261003 4.401162 5.603593 
-1.933902 0.629260 1.016706 1.914078 1.604694 87.670949 3.445561 -11.006121 -4.607911 -9.409831 -24.091717 22.126855 3.623527 1.277256 -9.053184 0.000000 -0.000000 0.000000 -5.176834 1.828278 -0.718988 1.778783 12.764503 14.123345 5.467428 -1.495843 -5.730049 0.000000 -0.000000 0.000000 -2.353698 3.340533 3.398117 4.107311 -5.406320 3.964822 1.234119 -1.190269 -5.097961 4.246888 5.762426 -11.421605 4.832243 8.814124 3.482518 -29.896907 -9.128887 -2.287840 -48.179853 -9.868672 18.006208 -1.555891 -21.962441 11.040105 -0.963621 -7.125554 7.138555 26.644490 3.619496 1.674936 42.311883 0.549548 11.884058 -13.819445 19.580753 -6.003709 3.331626 4.658597 6.992269 
-1.947093 0.629963 1.016487 5.274799 0.976605 87.753911 3.860782 -11.029564 -5.916343 -10.006696 -23.518063 23.212119 3.237812 1.201884 -8.547570 0.000000 -0.000000 0.000000 -4.539701 0.784981 0.858415 1.118533 11.178555 12.140286 4.688593 -2.842000 -6.482960 0.000000 -0.000000 0.000000 -2.012147 4.374581 4.273498 2.939960 -4.702099 3.446691 1.039143 -0.822955 -4.888665 3.455842 10.279345 -12.053811 3.237403 13.710230 1.886919 -29.265270 -7.449428 -3.439122 -46.564741 -8.360146 15.163149 1.691514 -22.773406 5.837743 0.402343 -5.977571 3.922721 25.640811 3.908362 1.721781 40.984457 1.860290 11.124610 -14.139419 20.185566 -7.699489 3.422854 4.433674 6.003218 
-1.960393 0.631318 1.016700 8.260076 0.213048 87.935548 4.173165 -10.827392 -7.224019 -10.053828 -22.185597 23.832085 2.750230 1.269134 -8.006351 0.000000 -0.000000 0.000000 -3.956231 -0.195480 1.946896 0.274227 9.505747 10.428726 3.617642 -3.928594 -7.409947 0.000000 -0.000000 0.000000 -1.977951 5.186184 5.071119 1.910221 -4.055072 2.680670 0.810996 -0.345268 -4.266877 2.338478 14.466025 -12.360416 1.856755 17.095802 -0.207187 -28.548969 -5.518848 -4.619504 -45.583250 -7.679463 11.667271 5.654985 -23.091128 -0.214542 -0.050890 -5.604932 0.643448 25.129756 3.937545 1.622689 39.727332 3.514401 9.888704 -15.344554 20.769260 -9.214018 3.757798 4.350675 6.266958 
-1.971855 0.633938 1.014807 11.707471 -0.369690 88.280941 4.263217 -10.770002 -9.166756 -9.918755 -20.305502 24.929512 2.503779 1.586039 -7.619255 0.000000 -0.000000 0.000000 -3.440340 -1.185454 2.866205 -0.353607 7.990229 8.480962 3.011449 -4.788245 -8.057927 0.000000 -0.000000 0.000000 -1.728361 5.493237 5.716140 1.247883 -4.021717 2.372525 0.551553 0.176042 -3.970422 0.861861 17.860373 -12.653228 0.270551 19.544099 -2.001394 -27.405261 -4.171470 -5.401082 -44.961312 -7.058919 8.535612 8.383999 -23.621453 -6.642963 0.338002 -5.311058 -2.937484 24.103019 4.415074 1.621705 38.904548 4.986081 8.609377 -16.677522 21.548884 -11.361196 3.749707 4.437230 6.308195 
-1.982349 0.636875 1.011277 15.349872 -0.760790 88.821050 4.984378 -9.791562 -11.730277 -10.743577 -18.424696 26.413373 1.156632 1.624110 -8.214419 0.000000 -0.000000 0.000000 -3.004500 -3.187016 2.995350 -0.670616 7.813373 7.412532 5.852316 -5.641995 -9.957714 0.000000 -0.000000 0.000000 -1.220011 4.355359 7.025476 0.143638 -2.427947 -2.272288 0.989741 -0.086597 0.425989 1.102936 20.899426 -12.148622 -4.689643 20.396555 -5.034668 -26.973763 -1.293782 -4.074739 -44.069862 -10.293545 5.530678 10.298908 -22.865911 -5.003745 1.336755 -4.748996 -12.009472 22.844233 3.056063 1.429649 38.375959 8.676507 8.792432 -18.464348 22.535041 -9.150287 2.052000 1.811992 -1.584103 
-1.992978 0.639676 1.009173 18.295307 -0.838740 89.237972 5.188029 -9.060600 -13.088391 -9.747995 -16.408755 26.430778 0.986705 2.210803 -8.594515 0.000000 -0.000000 0.000000 -1.861290 -3.658188 3.274397 -1.213777 6.315792 5.931963 4.884421 -6.907395 -10.617798 0.000000 -0.000000 0.000000 -0.702551 4.391638 7.883477 -0.258093 -2.338118 -3.112174 1.045028 0.170805 0.752372 -0.037874 21.768950 -12.844433 -5.553560 22.035796 -5.249753 -25.968736 -0.881287 -4.299878 -43.518900 -9.424892 3.742127 12.438921 -21.546061 -7.969082 3.171650 -4.718431 -12.720072 21.756688 3.370249 1.130522 38.423825 10.260978 7.982402 -19.681902 22.991980 -10.384721 1.096245 2.449855 -2.071030 
-2.001291 0.642833 1.008195 21.374573 -1.214077 89.449872 5.110386 -7.902066 -13.966278 -9.168482 -13.620033 25.770881 1.215660 2.453840 -8.644885 0.000000 -0.000000 0.000000 -1.188127 -4.408867 3.115565 -1.636175 4.391015 5.443301 3.971369 -8.154282 -10.791190 0.000000 -0.000000 0.000000 -0.583927 4.469636 8.371630 -0.462077 -2.316962 -3.164049 1.166092 0.307964 0.809187 -0.942936 22.210521 -12.700011 -6.515758 22.851731 -6.387674 -25.476162 -1.058720 -4.237004 -42.646920 -8.443412 2.574508 13.247184 -19.726768 -9.146428 5.373221 -4.416495 -12.292874 21.453629 4.028394 1.275410 37.766846 11.628013 7.040080 -20.571672 23.353153 -12.375515 -2.264535 2.847509 -3.239267 
-2.008727 0.645791 1.007573 24.500819 -1.756990 89.642065 4.548695 -6.737694 -14.594270 -8.583265 -10.968817 24.899883 1.854207 3.079554 -8.397513 0.000000 -0.000000 0.000000 -0.144468 -4.507844 2.255785 -2.591262 2.832182 6.246432 2.556200 -10.818128 -12.048949 0.000000 -0.000000 0.000000 -1.156975 4.244288 8.785036 -0.347347 -1.943774 -3.359305 1.420689 0.276279 1.080142 -1.297040 22.582934 -13.334177 -7.093534 23.346746 -6.686636 -24.945735 -0.750297 -4.161823 -42.541174 -7.760414 1.853056 13.483616 -18.236569 -8.599269 5.994506 -3.878059 -11.761892 21.220717 4.290365 0.921677 37.651644 12.952222 6.783948 -21.572193 23.452344 -13.565150 -3.076955 2.870096 -4.078280 
-2.015247 0.648570 1.006733 28.521424 -2.209583 89.515785 3.988957 -6.173450 -15.085952 -8.108994 -8.801409 24.249468 2.084628 3.543011 -8.141199 0.000000 -0.000000 0.000000 0.718142 -4.466422 1.814425 -3.261099 1.159957 7.221245 1.191921 -12.982221 -12.886234 0.000000 -0.000000 0.000000 -1.554492 3.994217 9.125911 -0.270061 -2.277331 -3.017513 1.536509 0.431608 1.313309 -1.226328 22.408405 -13.388247 -7.645661 23.252131 -7.500100 -24.370363 -0.805865 -3.775019 -42.601025 -7.313173 1.325386 13.293624 -17.397503 -7.459926 4.610925 -3.865409 -11.067917 21.149913 4.598984 0.684688 38.001916 13.870472 6.454757 -22.955536 23.341419 -14.610127 -2.791390 3.030063 -3.651891 
-2.020696 0.650860 1.005402 32.902191 -2.421577 89.233634 3.207293 -5.852975 -15.239845 -6.812670 -7.296308 23.764365 2.139660 4.729818 -8.800745 0.000000 -0.000000 0.000000 1.630263 -4.559201 1.709286 -3.776640 -0.609871 7.982981 0.055358 -15.108694 -14.041023 0.000000 -0.000000 0.000000 -1.677854 3.772753 10.368727 -0.187815 -2.490572 -3.774760 1.772265 0.157565 1.394927 -1.233254 22.362392 -13.515897 -7.840100 23.147954 -7.653075 -24.191017 -0.875463 -3.183016 -42.730391 -6.413350 1.235384 12.520865 -17.691385 -5.852936 3.865853 -3.911304 -10.751377 21.120875 4.825480 0.571211 38.466793 14.063487 6.390253 -23.447917 23.559050 -15.225535 -3.637514 3.341840 -3.842104 
-2.024821 0.653174 1.003134 37.330230 -2.470265 89.108479 2.815580 -5.069761 -15.818975 -5.551618 -4.507657 24.559088 2.878508 6.144852 -10.392835 0.000000 -0.000000 0.000000 2.519713 -5.040410 1.292918 -4.294804 -2.065060 9.001912 -0.545094 -16.548048 -15.159653 0.000000 -0.000000 0.000000 -1.659022 3.830553 10.295887 0.040596 -2.622575 -2.985267 1.960356 -0.073599 1.491422 -1.255570 21.607604 -13.744326 -8.222927 22.794593 -8.176523 -24.317066 -1.194363 -2.586270 -43.268235 -6.096279 1.388240 11.982444 -18.613564 -4.304005 2.388699 -3.482536 -10.190862 21.429015 5.411833 0.970866 38.296001 14.163481 6.035329 -23.965646 23.623364 -15.780101 -2.814487 3.162706 -4.026149 
-2.027888 0.655354 1.000918 41.677746 -2.555590 88.954751 2.769955 -3.811556 -16.220768 -4.493646 -0.888073 26.098191 3.069909 8.138695 -12.157659 0.000000 -0.000000 0.000000 2.947860 -5.597353 0.817346 -4.487972 -4.161086 9.935187 -1.094430 -18.099260 -15.703253 0.000000 -0.000000 0.000000 -1.622456 3.699137 10.729923 0.172930 -2.496257 -3.250022 2.051835 -0.252409 1.723951 -1.058880 20.656357 -13.631003 -8.218445 22.509363 -8.311597 -24.694901 -1.426679 -2.266922 -43.811360 -5.745730 2.063549 10.796750 -19.154252 -2.637381 3.330865 -3.852070 -9.383998 21.540979 5.307253 0.861804 38.804143 14.239955 6.384762 -22.577011 23.701387 -15.374244 -3.502651 3.472677 -3.877318 
-2.029712 0.656574 0.999972 45.795211 -2.642761 88.499194 2.854175 -2.178698 -15.749741 -3.080956 3.850150 27.875154 3.909084 10.689166 -12.780213 0.000000 -0.000000 0.000000 3.145692 -6.123909 0.873424 -4.725010 -6.442949 10.775972 -2.291047 -19.514483 -15.965207 0.000000 -0.000000 0.000000 -1.894798 3.714290 11.136901 0.264441 -2.207652 -3.025858 2.364136 -0.272305 1.643201 -0.639813 19.210940 -13.243003 -8.128436 22.045223 -8.208575 -25.041342 -1.717041 -1.672930 -44.994922 -5.598303 2.598150 9.886416 -19.654980 -0.664225 3.126317 -3.684652 -8.866866 21.886373 5.553411 1.221629 39.497259 14.081859 6.551997 -21.625245 22.797551 -14.186837 -3.056905 3.317335 -3.225190 
-2.030022 0.658144 0.999664 50.176607 -2.666900 88.337857 3.192787 -0.478887 -15.510175 -1.919795 7.746400 30.266697 5.123728 13.019578 -13.399067 0.000000 -0.000000 0.000000 3.120640 -6.885311 0.676136 -4.611567 -8.395876 11.757936 -2.378139 -19.923798 -15.760662 0.000000 -0.000000 0.000000 -1.955755 3.816818 11.028193 0.478294 -2.377273 -2.868398 2.500093 -0.683600 1.775538 -0.372935 17.661555 -13.393557 -7.749628 21.475166 -7.895508 -25.520027 -2.023763 -0.788688 -46.566474 -5.107135 3.183973 9.182277 -20.134758 1.164193 2.724702 -3.711347 -8.589723 22.264809 6.208709 1.627833 40.543255 14.268304 6.791226 -20.760396 21.291278 -12.833369 -2.089371 3.230163 -1.390571 
-2.030049 0.658757 0.999515 53.829182 -2.691112 87.987458 3.672154 0.968743 -14.445968 -0.674780 11.488621 31.830997 6.204560 14.454970 -13.105891 0.000000 -0.000000 0.000000 3.312902 -7.364139 0.923173 -4.945728 -10.283656 12.108025 -3.159628 -21.235205 -15.889759 0.000000 -0.000000 0.000000 -2.383065 3.793742 10.973239 0.519658 -1.958884 -2.449622 2.790933 -0.560852 1.632779 0.269680 16.356098 -13.363730 -7.273020 20.422939 -7.166396 -25.763642 -1.864810 -0.043948 -48.315912 -5.087108 3.643788 7.801711 -20.443504 3.575028 2.021326 -3.210777 -8.179750 22.941297 6.603326 2.113948 41.743492 14.610839 7.356975 -19.461842 19.889341 -11.210728 -2.781374 2.817848 0.089780 
-2.028275 0.660527 0.999281 57.972177 -2.781708 88.018841 3.849352 1.887116 -13.926242 -0.185989 13.294929 32.855649 6.268114 14.786148 -11.875586 0.000000 -0.000000 0.000000 3.258984 -8.080010 0.886035 -5.263472 -12.158950 12.603786 -3.637243 -21.725215 -15.385626 0.000000 -0.000000 0.000000 -2.619072 3.520129 10.807902 0.698332 -2.227926 -2.331088 2.840883 -0.708215 1.409435 0.516724 14.904816 -13.305213 -6.803155 19.327836 -6.761890 -26.681584 -1.878294 0.892968 -49.673917 -4.217941 4.317536 6.908534 -20.827621 5.006919 2.183931 -3.160790 -7.826602 23.888378 7.363243 2.653549 42.806715 14.781595 8.148565 -18.544299 19.505673 -9.835664 -3.290508 2.794395 1.377767 
